# xmcd CD database file
#
# Track frame offsets:
#	150
#	31470
#	81666
#	118835
#	143130
#
# Disc length: 2282 seconds
#
# Revision: 0
# Processed by: cddbd v1.5.2PL0 Copyright (c) Steve Scherf et al.
# Submitted via: CDex 1.51
#
DISCID=4508e805
DTITLE=Roy Haynes - Thank You, Thank You
DYEAR=1900
DGENRE=Jazz
TTITLE0=Thank You, Thank You
TTITLE1=Bullfight
TTITLE2=Quiet Fire
TTITLE3=Processional
TTITLE4=Sweet Song
EXTD=
EXTT0=
EXTT1=
EXTT2=
EXTT3=
EXTT4=
PLAYORDER=
